<svg xmlns="http://www.w3.org/2000/svg" width="1571" height="423" viewBox="75 116 1571 423" role="img" aria-label="Correa Lima Advocacia">
<path d="M 111.26 480.69 C106.04,478.77 93.21,465.51 91.92,460.70 C90.74,456.32 91.37,449.80 93.30,446.36 C96.21,441.19 133.76,402.53 181.15,355.91 C231.94,305.96 281.52,257.85 289.75,250.54 C292.09,248.47 293.99,246.48 293.98,246.13 C293.97,245.79 290.60,241.92 286.48,237.55 C282.37,233.18 279.00,229.25 279.00,228.82 C279.00,227.48 338.31,169.00 339.67,169.00 C341.51,169.00 366.15,191.41 375.00,201.13 C387.07,214.40 394.00,222.97 394.00,224.63 C394.00,227.16 337.03,284.00 334.49,284.00 C333.15,284.00 329.43,281.20 324.74,276.64 L 317.16 269.28 L 305.33 282.84 C298.82,290.30 288.54,301.82 282.47,308.45 C253.85,339.72 229.63,366.66 197.96,402.43 C157.35,448.31 129.40,477.78 124.18,480.22 C119.91,482.23 115.82,482.37 111.26,480.69 ZM 266.48 505.55 C259.07,501.86 256.00,496.61 256.00,487.64 C256.00,473.86 263.66,467.03 279.12,467.01 L 286.74 467.00 L 287.42 461.85 C288.63,452.74 293.66,445.71 301.22,442.55 C304.47,441.20 314.46,441.00 380.72,441.00 C455.94,441.01 456.53,441.02 460.00,443.11 C461.92,444.26 464.57,446.18 465.88,447.35 C469.21,450.35 472.98,458.78 472.99,463.25 L 473.00 467.00 L 479.85 467.00 C495.54,467.00 503.00,473.61 503.00,487.50 C503.00,495.75 500.52,500.96 494.80,504.75 L 490.65 507.50 L 381.05 507.77 L 271.46 508.03 ZM 738.11 497.37 C724.26,490.46 717.99,469.00 719.31,433.00 C719.91,416.75 721.20,409.86 725.60,399.30 C728.67,391.93 735.81,384.70 741.62,383.09 C747.75,381.39 757.93,381.78 762.50,383.90 C766.50,385.76 773.00,391.46 773.00,393.12 C773.00,393.60 773.45,394.00 774.00,394.00 C774.64,394.00 775.00,385.17 775.00,369.50 L 775.00 345.00 L 803.00 345.00 L 803.00 498.06 L 789.25 497.78 L 775.50 497.50 L 775.50 492.25 C775.50,486.39 774.97,485.82 772.99,489.52 C769.58,495.89 760.85,500.00 750.73,500.00 C744.81,500.00 742.37,499.49 738.11,497.37 ZM 607.00 497.26 C607.00,496.82 609.22,487.02 611.93,475.48 C626.06,415.35 637.48,366.46 639.37,358.00 L 641.50 348.50 L 675.35 348.50 L 676.52 353.50 C677.16,356.25 681.10,372.47 685.28,389.53 C691.96,416.81 698.64,445.02 707.95,485.25 C709.45,491.71 710.45,497.22 710.17,497.50 C709.89,497.77 703.52,498.00 696.01,498.00 L 682.35 498.00 L 679.62 484.25 C678.12,476.69 676.66,469.71 676.38,468.75 C675.91,467.17 674.18,467.00 658.50,467.00 L 641.14 467.00 L 639.45 474.75 C638.52,479.01 637.01,485.88 636.09,490.00 L 634.42 497.50 L 620.71 497.78 C613.17,497.93 607.00,497.70 607.00,497.26 ZM 935.95 498.60 C921.50,493.08 914.38,484.69 910.32,468.39 C907.84,458.47 907.85,424.47 910.34,414.50 C914.15,399.21 920.52,390.34 931.25,385.39 C937.16,382.66 938.23,382.50 951.00,382.50 C963.51,382.50 964.91,382.69 970.15,385.15 C986.86,392.99 993.59,409.73 993.17,442.50 C992.79,473.11 986.41,488.73 971.25,496.20 C964.87,499.34 963.95,499.51 952.02,499.73 C943.38,499.89 938.40,499.54 935.95,498.60 ZM 1346.22 497.83 C1336.30,493.02 1331.64,483.03 1331.60,466.50 C1331.54,443.41 1339.00,435.73 1368.94,428.05 L 1383.50 424.31 L 1383.50 416.07 C1383.50,408.03 1383.42,407.76 1380.23,404.92 C1377.54,402.51 1376.09,402.00 1371.91,402.00 C1364.88,402.00 1361.47,405.38 1360.48,413.33 L 1359.77 419.00 L 1334.71 419.00 L 1335.29 411.40 C1336.29,398.14 1341.39,390.56 1353.00,385.09 C1358.10,382.69 1359.52,382.50 1372.50,382.50 C1385.85,382.50 1386.79,382.63 1392.81,385.41 C1400.17,388.81 1406.00,394.86 1408.62,401.81 C1410.16,405.91 1410.47,411.92 1411.07,449.50 C1411.44,473.15 1412.09,493.74 1412.49,495.25 L 1413.23 498.00 L 1400.72 498.00 C1400.06,498.00 1399.44,498.00 1398.84,498.00 C1392.08,498.01 1389.37,498.02 1388.08,496.66 C1387.10,495.63 1386.95,493.82 1386.47,490.63 L 1385.77 486.01 L 1381.14 490.95 C1374.59,497.91 1369.54,499.96 1359.00,499.93 C1352.48,499.91 1349.50,499.42 1346.22,497.83 ZM 1117.04 498.42 C1104.97,493.18 1100.48,483.56 1101.15,464.31 C1101.47,454.92 1101.89,452.74 1104.34,447.73 C1109.27,437.66 1116.39,433.65 1140.00,427.66 L 1152.50 424.49 L 1152.80 418.08 C1153.31,407.31 1149.52,402.00 1141.33,402.00 C1133.70,402.00 1130.00,406.30 1130.00,415.15 L 1130.00 419.00 L 1117.00 419.00 C1116.01,419.00 1115.09,419.00 1114.23,419.01 C1108.20,419.03 1105.43,419.04 1104.41,417.71 C1103.54,416.58 1103.95,414.47 1104.69,410.57 C1104.82,409.93 1104.95,409.23 1105.09,408.47 C1107.26,396.75 1112.26,390.10 1122.50,385.31 C1128.15,382.67 1129.30,382.50 1142.00,382.50 C1154.71,382.50 1155.86,382.67 1161.63,385.33 C1168.95,388.72 1174.08,393.71 1177.20,400.50 C1179.46,405.40 1179.51,406.34 1180.06,448.50 C1180.43,477.04 1180.99,492.39 1181.74,494.15 C1182.36,495.60 1182.60,497.07 1182.27,497.40 C1181.94,497.73 1176.15,498.00 1169.41,498.00 L 1157.16 498.00 L 1156.58 495.00 C1156.26,493.35 1155.74,490.64 1155.42,488.98 L 1154.83 485.97 L 1150.43 490.87 C1144.15,497.85 1139.01,500.01 1128.76,499.96 C1123.71,499.94 1119.16,499.34 1117.04,498.42 ZM 1032.30 498.19 C1019.95,493.80 1013.06,485.54 1009.46,470.78 C1007.14,461.29 1006.45,431.81 1008.26,420.00 C1012.35,393.32 1024.64,382.00 1049.50,382.00 C1065.57,382.00 1077.00,387.03 1082.59,396.56 C1085.96,402.31 1087.96,410.55 1087.98,418.75 L 1088.00 425.00 L 1061.00 425.00 L 1061.00 418.75 C1061.00,410.26 1058.77,405.94 1053.44,404.10 C1049.95,402.89 1048.75,402.89 1044.95,404.10 C1041.36,405.23 1040.05,406.35 1038.01,410.00 C1035.51,414.49 1035.50,414.57 1035.52,440.50 C1035.55,469.90 1036.06,472.77 1042.00,476.80 C1044.76,478.67 1046.41,479.08 1049.79,478.71 C1057.00,477.92 1060.99,472.44 1061.01,463.28 C1061.01,462.92 1061.01,462.56 1061.02,462.23 C1061.02,458.69 1061.02,456.67 1062.02,455.52 C1063.35,453.99 1066.44,453.99 1073.65,454.00 C1074.16,454.00 1074.70,454.00 1075.26,454.00 L 1088.29 454.00 L 1087.72 463.25 C1086.64,480.59 1081.46,489.93 1069.57,496.00 C1062.93,499.38 1062.29,499.51 1050.10,499.77 C1039.90,499.98 1036.51,499.68 1032.30,498.19 ZM 1220.30 498.14 C1207.48,493.71 1201.33,485.80 1197.28,468.54 C1194.97,458.72 1194.97,425.58 1197.28,415.24 C1200.78,399.52 1207.15,390.54 1218.44,385.39 C1225.68,382.09 1240.66,380.94 1249.84,382.98 C1266.95,386.79 1274.77,396.52 1275.76,415.25 L 1276.27 425.00 L 1249.00 425.00 L 1249.00 418.75 C1249.00,410.26 1246.76,405.91 1241.52,404.20 C1234.53,401.92 1228.95,404.61 1225.77,411.80 C1224.03,415.73 1223.65,419.14 1223.24,434.46 C1222.68,455.38 1223.96,468.58 1227.02,473.53 C1230.96,479.90 1240.62,480.62 1245.44,474.89 C1248.45,471.31 1248.90,469.66 1249.24,461.00 L 1249.50 454.50 L 1262.90 454.22 L 1276.29 453.94 L 1275.74 463.72 C1274.66,482.88 1267.74,493.21 1252.57,498.34 C1245.60,500.69 1227.36,500.58 1220.30,498.14 ZM 839.29 489.27 C837.46,481.46 814.93,391.89 813.38,386.25 L 812.77 384.00 L 826.82 384.00 C834.56,384.00 841.13,384.40 841.43,384.89 C841.74,385.38 843.07,391.57 844.40,398.64 L 845.71 405.62 C855.16,455.84 857.04,465.84 857.77,465.76 C857.98,465.73 858.10,464.84 858.27,463.84 C860.65,450.57 862.38,441.11 866.50,419.00 C869.00,405.52 871.52,392.14 872.10,389.25 L 873.14 384.00 L 887.07 384.00 C897.56,384.00 900.99,384.31 900.98,385.25 C900.96,385.94 894.69,411.48 887.04,442.00 L 873.14 497.50 L 857.24 497.77 L 841.35 498.05 ZM 349.49 318.14 C337.77,312.81 333.59,298.31 340.91,288.33 C346.13,281.21 396.25,230.91 400.05,228.97 C408.56,224.63 417.34,225.60 424.00,231.62 C431.12,238.05 432.86,248.17 428.45,257.50 C427.28,259.97 416.63,271.55 400.63,287.74 C379.30,309.34 373.64,314.52 368.69,316.99 C361.64,320.52 355.54,320.88 349.49,318.14 ZM 259.42 225.59 C246.11,221.42 240.54,207.21 247.23,194.50 C250.64,188.02 301.67,137.17 307.38,134.56 C313.37,131.82 322.73,132.73 328.22,136.59 C334.34,140.89 336.96,146.04 336.98,153.80 C336.99,157.54 336.36,161.40 335.43,163.30 C334.56,165.06 320.76,179.44 304.76,195.26 C278.34,221.38 275.21,224.16 270.65,225.51 C264.79,227.25 264.73,227.25 259.42,225.59 ZM 1291.00 384.00 L 1318.00 384.00 L 1318.00 498.00 L 1291.00 498.00 ZM 957.70 476.46 C964.12,472.26 967.21,452.72 965.22,428.92 C963.60,409.57 960.13,403.67 950.38,403.67 C944.58,403.67 941.07,406.31 938.51,412.60 C936.72,417.02 936.52,419.86 936.51,441.50 C936.50,465.11 936.54,465.58 939.00,470.50 C943.03,478.56 950.74,481.02 957.70,476.46 ZM 767.64 475.08 C773.31,471.62 774.46,465.91 774.47,441.00 C774.49,418.02 773.77,413.16 769.64,408.36 C767.79,406.21 766.24,405.60 761.71,405.23 C756.51,404.80 755.86,404.98 753.12,407.72 C748.29,412.55 747.51,417.14 747.50,440.50 C747.50,463.74 748.38,469.05 753.04,474.05 C755.28,476.44 756.62,477.00 760.15,477.00 C762.67,476.99 765.82,476.19 767.64,475.08 ZM 671.00 441.56 C671.00,440.77 668.79,429.18 666.08,415.81 C663.37,402.44 660.59,388.16 659.89,384.08 L 658.62 376.67 L 652.32 408.58 C648.86,426.14 646.02,441.06 646.01,441.75 C646.00,442.68 649.16,443.00 658.50,443.00 C668.71,443.00 671.00,442.74 671.00,441.56 ZM 1146.76 476.17 C1151.26,472.97 1153.10,467.17 1153.74,454.25 C1154.05,448.06 1153.96,443.00 1153.54,443.00 C1150.94,443.00 1135.74,448.42 1133.57,450.12 C1126.21,455.91 1125.17,470.26 1131.64,476.74 C1133.80,478.89 1134.82,479.18 1138.95,478.78 C1141.60,478.52 1145.09,477.36 1146.76,476.17 ZM 1376.01 476.75 C1382.72,472.18 1383.46,470.22 1383.85,455.93 C1384.05,448.42 1383.81,443.00 1383.28,443.00 C1381.70,443.00 1368.56,447.66 1365.11,449.44 C1356.78,453.75 1355.48,472.02 1363.12,477.37 C1366.43,479.69 1372.09,479.42 1376.01,476.75 ZM 1291.00 345.00 L 1318.00 345.00 L 1318.00 368.00 L 1291.00 368.00 Z" fill="rgb(83,186,87)"/>
<path d="M 535.67 507.33 C535.30,506.97 535.00,422.37 535.00,319.33 L 535.00 132.00 L 540.00 132.00 L 545.00 132.00 L 545.00 320.00 L 545.00 508.00 L 540.67 508.00 C538.28,508.00 536.03,507.70 535.67,507.33 ZM 622.89 304.68 C606.87,298.89 596.23,286.78 591.19,268.60 C589.73,263.33 589.51,257.11 589.55,223.00 C589.61,179.05 590.17,173.27 595.42,162.30 C606.14,139.95 636.50,130.41 659.83,142.08 C667.47,145.89 675.23,154.15 679.27,162.74 C682.27,169.11 682.47,170.29 682.84,183.25 L 683.23 197.00 L 668.61 197.00 L 654.00 197.00 L 654.00 187.93 C654.00,178.15 653.39,176.22 648.70,171.27 C640.68,162.80 627.53,165.16 621.96,176.09 C620.11,179.71 620.00,182.21 620.00,221.90 C620.00,249.12 620.37,264.86 621.06,266.68 C623.49,273.10 630.39,278.00 637.00,278.00 C641.80,278.00 645.48,276.28 649.13,272.34 C653.33,267.79 654.00,265.64 654.00,256.57 L 654.00 248.00 L 668.62 248.00 L 683.24 248.00 L 682.75 260.75 C682.19,275.15 680.95,279.59 675.13,288.00 C666.83,299.99 655.08,306.07 639.00,306.70 C630.90,307.02 628.53,306.72 622.89,304.68 ZM 729.80 305.13 C721.33,302.33 716.02,298.84 709.31,291.68 C696.75,278.25 696.04,274.49 696.02,221.41 C696.00,183.99 696.17,179.64 697.94,172.74 C700.57,162.45 703.23,157.61 709.93,150.91 C719.03,141.81 730.80,137.00 744.00,137.00 C756.87,137.00 767.00,141.00 776.09,149.67 C782.86,156.12 787.44,164.81 788.93,174.00 C790.65,184.62 790.30,261.92 788.49,270.50 C785.18,286.18 775.73,298.05 762.16,303.57 C753.15,307.23 738.31,307.95 729.80,305.13 ZM 749.93 276.54 C753.17,274.86 757.78,269.70 759.08,266.30 C759.56,265.02 760.01,244.93 760.08,221.63 C760.21,174.70 760.40,176.19 753.57,170.20 C749.26,166.41 744.21,165.32 738.65,166.98 C733.54,168.51 727.31,174.79 726.50,179.24 C726.17,181.03 726.04,201.44 726.20,224.58 L 726.50 266.66 L 729.37 270.41 C730.94,272.48 733.64,275.03 735.37,276.08 C739.12,278.37 745.97,278.58 749.93,276.54 ZM 804.69 304.36 C804.31,303.98 804.00,266.84 804.00,221.83 L 804.00 140.00 L 832.29 140.00 C863.04,140.00 867.84,140.61 877.17,145.69 C883.92,149.37 892.51,158.72 896.03,166.25 C903.98,183.24 902.14,201.78 891.07,216.41 L 886.34 222.66 L 890.14 227.94 C892.23,230.85 894.96,235.76 896.21,238.86 C898.38,244.28 898.47,245.67 898.49,274.50 L 898.50 304.50 L 884.50 304.50 L 870.50 304.50 L 870.00 277.00 L 869.50 249.50 L 866.69 244.73 C865.15,242.10 862.04,238.73 859.77,237.23 C856.01,234.74 854.67,234.47 844.34,234.14 L 833.03 233.78 L 832.76 269.14 L 832.50 304.50 L 818.94 304.78 C811.49,304.93 805.08,304.74 804.69,304.36 ZM 860.88 204.06 C872.47,198.15 875.95,185.04 868.35,176.00 C863.47,170.20 859.55,169.00 845.54,169.00 L 833.00 169.00 L 833.00 187.50 L 833.00 206.00 L 845.04 206.00 C854.98,206.00 857.74,205.66 860.88,204.06 ZM 916.47 303.78 C916.20,303.08 916.10,266.05 916.24,221.50 L 916.50 140.50 L 942.93 140.23 C957.84,140.08 971.79,140.41 974.93,140.98 C988.91,143.54 1001.79,153.66 1008.58,167.45 C1012.45,175.30 1012.50,175.52 1012.50,186.95 C1012.50,200.31 1010.54,207.03 1004.21,215.40 C1002.17,218.09 1000.12,220.79 999.66,221.41 C999.14,222.09 1000.18,224.55 1002.33,227.75 C1004.26,230.62 1006.89,235.57 1008.16,238.74 C1010.39,244.31 1010.47,245.49 1010.49,274.50 L 1010.50 304.50 L 996.50 304.50 L 982.50 304.50 L 982.00 277.00 C981.53,251.28 981.36,249.24 979.35,245.50 C974.53,236.56 969.13,234.00 955.04,234.00 L 945.03 234.00 L 944.76 269.25 L 944.50 304.50 L 930.73 304.78 C920.27,304.99 916.84,304.75 916.47,303.78 ZM 973.71 203.90 C981.71,200.03 986.18,191.08 984.05,183.20 C982.78,178.47 978.14,172.64 973.90,170.45 C971.87,169.40 967.49,169.00 958.05,169.00 L 945.00 169.00 L 945.00 187.50 L 945.00 206.00 L 957.18 206.00 C967.52,206.00 970.03,205.68 973.71,203.90 ZM 1030.46 303.75 C1030.20,303.06 1030.10,266.05 1030.24,221.50 L 1030.50 140.50 L 1069.28 140.24 L 1108.06 139.98 L 1107.78 154.24 L 1107.50 168.50 L 1083.25 168.77 L 1059.00 169.04 L 1059.00 187.52 L 1059.00 206.00 L 1083.50 206.00 L 1108.00 206.00 L 1108.00 220.00 L 1108.00 234.00 L 1083.50 234.00 L 1059.00 234.00 L 1059.00 255.00 L 1059.00 276.00 L 1083.50 276.00 L 1108.00 276.00 L 1108.00 290.50 L 1108.00 305.00 L 1069.47 305.00 C1039.56,305.00 1030.83,304.72 1030.46,303.75 ZM 1116.81 304.47 C1116.19,303.86 1115.96,305.24 1125.64,253.00 C1133.94,208.19 1144.41,150.84 1145.48,144.25 L 1146.18 140.00 L 1164.59 140.00 L 1183.00 140.00 L 1183.00 142.35 C1183.00,144.48 1188.99,178.35 1198.51,230.00 C1201.76,247.64 1204.66,263.89 1209.91,293.83 C1211.26,301.49 1211.43,304.28 1210.56,304.62 C1209.92,304.86 1203.60,304.94 1196.51,304.78 L 1183.62 304.50 L 1182.89 301.50 C1182.49,299.85 1181.64,295.91 1181.01,292.75 L 1179.86 287.00 L 1164.01 287.00 L 1148.16 287.00 L 1147.62 289.75 C1147.32,291.26 1146.55,295.31 1145.91,298.75 L 1144.74 305.00 L 1131.04 305.00 C1123.50,305.00 1117.10,304.76 1116.81,304.47 ZM 1175.00 259.95 C1175.00,259.37 1173.18,247.33 1170.96,233.20 C1168.74,219.06 1166.39,204.01 1165.76,199.75 C1165.12,195.49 1164.33,192.00 1164.01,192.00 C1163.69,192.00 1161.92,201.79 1160.09,213.75 C1158.25,225.71 1155.75,241.01 1154.54,247.75 C1153.33,254.49 1152.56,260.23 1152.83,260.50 C1153.86,261.53 1175.00,261.00 1175.00,259.95 ZM 1260.68 304.35 C1260.31,303.97 1260.00,266.84 1260.00,221.83 L 1260.00 140.00 L 1274.50 140.00 L 1289.00 140.00 L 1289.00 208.00 L 1289.00 276.00 L 1313.53 276.00 L 1338.05 276.00 L 1337.78 290.25 L 1337.50 304.50 L 1299.43 304.76 C1278.49,304.91 1261.05,304.72 1260.68,304.35 ZM 1354.46 303.75 C1354.20,303.06 1354.10,266.05 1354.24,221.50 L 1354.50 140.50 L 1368.75 140.22 L 1383.00 139.95 L 1383.00 222.47 L 1383.00 305.00 L 1368.97 305.00 C1358.66,305.00 1354.81,304.67 1354.46,303.75 ZM 1401.47 303.78 C1401.20,303.08 1401.10,266.05 1401.24,221.50 L 1401.50 140.50 L 1417.76 140.23 L 1434.02 139.95 L 1442.92 153.73 C1447.81,161.30 1452.59,168.56 1453.53,169.85 L 1455.25 172.21 L 1458.33 167.35 C1460.03,164.68 1464.68,157.44 1468.67,151.25 L 1475.93 140.00 L 1491.97 140.00 C1500.79,140.00 1508.03,140.34 1508.08,140.75 C1508.50,144.95 1508.73,299.34 1508.32,301.78 L 1507.77 305.05 L 1494.13 304.78 L 1480.50 304.50 L 1480.24 245.75 C1480.10,213.44 1479.62,187.00 1479.17,187.00 C1478.40,187.00 1470.13,198.13 1460.01,212.78 C1457.62,216.23 1455.18,218.90 1454.59,218.71 C1453.49,218.35 1434.99,192.44 1432.83,188.25 C1432.20,187.01 1431.30,186.00 1430.85,186.00 C1430.39,186.00 1429.90,212.66 1429.76,245.25 L 1429.50 304.50 L 1415.73 304.78 C1405.27,304.99 1401.84,304.75 1401.47,303.78 ZM 1520.58 304.13 C1520.06,303.28 1526.26,267.64 1534.53,224.00 C1538.47,203.26 1541.60,186.40 1545.50,165.00 C1546.95,157.02 1548.59,148.14 1549.14,145.25 L 1550.14 140.00 L 1568.57 140.00 C1580.28,140.00 1587.00,140.37 1587.00,141.01 C1587.00,146.19 1595.00,192.60 1605.88,250.50 C1610.18,273.40 1615.00,301.29 1615.00,303.29 C1615.00,304.82 1613.54,305.00 1601.06,305.00 C1593.39,305.00 1586.90,304.64 1586.63,304.21 C1586.36,303.78 1585.56,299.73 1584.85,295.21 L 1583.56 287.00 L 1567.47 287.00 L 1551.39 287.00 L 1549.94 295.75 L 1548.50 304.50 L 1534.83 304.78 C1527.24,304.93 1520.90,304.65 1520.58,304.13 ZM 1578.30 260.25 C1578.53,259.84 1577.93,254.77 1576.95,249.00 C1575.98,243.23 1573.54,227.93 1571.53,215.02 C1569.51,202.10 1567.70,191.37 1567.50,191.16 C1567.29,190.96 1566.86,192.30 1566.53,194.15 C1565.91,197.65 1556.00,260.31 1556.00,260.75 C1556.00,261.40 1577.93,260.91 1578.30,260.25 Z" fill="rgb(251,251,251)"/>
</svg>
